<svg width="64" height="64" viewBox="0 0 64 64" fill="none" xmlns="http://www.w3.org/2000/svg">
<path d="M34.0801 42.9473L42.3925 44.5458L49.2129 9.4845C49.6392 7.13997 48.1472 4.79545 45.9093 4.36917C43.5647 3.94289 41.3268 5.54143 40.9005 7.88596L34.0801 42.9473Z" fill="#FFDD67"/>
<path d="M46.0138 4.36902C45.6941 4.26245 45.4809 4.26245 45.1612 4.26245C47.0795 5.00844 48.1451 7.03325 47.7189 9.16464L40.8984 44.2259L42.3904 44.5457L49.2108 9.48435C49.7437 7.03325 48.2517 4.7953 46.0138 4.36902Z" fill="#EBA352"/>
<path d="M25.5527 44.0131H35.5703V5.32847C35.5703 2.45109 33.3323 0 30.5615 0C27.8973 0 25.5527 2.34452 25.5527 5.32847V44.0131Z" fill="#FFDD67"/>
<path d="M30.6688 0C30.4557 0 30.136 -1.0322e-07 29.9229 0.106569C32.3739 0.532846 34.1856 2.66423 34.1856 5.32846V44.1197H35.6776V5.32846C35.6776 2.34452 33.4396 0 30.6688 0Z" fill="#EBA352"/>
<path d="M20.2253 43.9068L28.7508 41.6688L19.4793 6.39441C18.8399 3.94332 16.3888 2.45135 14.0443 2.9842C11.6998 3.62361 10.3144 6.0747 10.9538 8.5258L20.2253 43.9068Z" fill="#FFDD67"/>
<path d="M14.0437 2.9842L13.4043 3.3039C15.5357 3.19733 17.4539 4.58273 18.0933 6.82069L27.3649 42.0951L28.8568 41.6689L19.4787 6.39441C18.8393 3.94332 16.3882 2.45135 14.0437 2.9842Z" fill="#EBA352"/>
<path d="M2.1083 12.1487C0.0834788 13.1078 -0.555937 15.6655 0.509756 17.7968L14.5769 45.8246L21.717 42.2012L7.6499 14.1735C6.58421 12.0421 4.13311 11.1895 2.1083 12.1487Z" fill="#FFDD67"/>
<path d="M2.10914 12.1487C1.896 12.2552 1.68287 12.3618 1.46973 12.5749C3.2814 12.0421 5.30622 13.0012 6.26535 14.9195L20.3325 42.9472L21.7179 42.3078L7.65075 14.1735C6.58505 12.0421 4.13396 11.1895 2.10914 12.1487Z" fill="#EBA352"/>
<path d="M63.5997 29.0933C61.8946 25.7897 56.5661 26.0028 51.1311 31.9707C47.2946 36.1269 46.5486 37.5123 42.7121 37.4057V33.0364C42.7121 33.0364 34.5062 26.9619 18.2011 29.7327C18.2011 29.7327 8.92961 31.0116 8.92961 35.9138C8.92961 35.9138 7.33107 47.743 10.6347 55.2028C15.5369 66.286 40.6873 69.1634 48.5734 50.3006C50.1719 46.5707 53.369 43.7999 56.2464 40.2831C59.55 36.0203 65.4113 32.6101 63.5997 29.0933Z" fill="#FFDD67"/>
<path d="M63.5977 29.0933C63.278 28.4539 62.8517 28.0276 62.3189 27.6013C62.4255 27.7079 62.532 27.8145 62.532 28.0276C64.3437 31.651 58.4824 34.9546 54.9656 39.2174C52.0882 42.7342 48.8912 45.505 47.2926 49.2349C40.4722 65.54 20.6503 65.54 12.3379 58.0801C19.9043 66.6057 41.2182 67.4582 48.3583 50.3006C49.9569 46.5707 53.1539 43.7999 56.0313 40.2831C59.5481 36.0203 65.4094 32.6101 63.5977 29.0933ZM43.7758 37.4057C36.8488 34.848 24.4868 39.5371 26.1919 52.0057C26.1919 40.3896 36.7423 37.5123 42.497 37.5123C43.3496 37.4057 43.7758 37.4057 43.7758 37.4057Z" fill="#EBA352"/>
</svg>
