<svg width="59" height="60" viewBox="0 0 59 60" fill="none" xmlns="http://www.w3.org/2000/svg">
<path d="M53.4356 17.0606C52.0492 15.0288 49.7178 13.6937 47.0716 13.6937H46.2157C46.2157 13.6937 37.053 3.98496 37.4005 3.26776C35.5245 4.27937 34.2339 6.23926 34.2339 8.52095C34.2339 8.52095 24.8041 2.64813 25.2526 1.76489C23.4673 2.94938 22.252 5.13522 22.252 7.6651V8.5586C22.252 8.5586 12.9284 5.7771 13.4488 4.97261C11.5659 5.98251 10.2702 7.94582 10.2702 10.2326V13.4609L0 24.1966V28.7241L29.3727 53.4392C29.3727 53.4409 51.8438 15.5012 53.4356 17.0606Z" fill="#EF9645"/>
<path d="M5.34733 30.8108C7.87037 30.8108 10.0339 29.3883 11.1534 27.3138C12.3139 29.3883 14.5049 30.8108 17.0519 30.8108H17.182C19.1556 30.8108 20.8946 29.9378 22.1271 28.589C22.1664 28.5479 22.252 28.4486 22.252 28.4486C22.5687 28.0857 22.8391 27.6818 23.0753 27.259C23.1438 27.1358 23.5563 26.196 23.6607 25.8332C23.7497 25.537 23.8422 25.2443 23.8901 24.9328C24.1315 25.2187 24.3968 25.4788 24.6775 25.7202C24.7956 25.8212 25.4477 26.3004 25.6634 26.4271C26.6716 27.0279 27.839 27.3857 29.1005 27.3857H34.5197C33.604 27.8478 32.8097 28.4366 32.0823 29.0974C29.1228 31.7813 27.6678 36.0896 27.6678 42.2141C27.6678 42.6865 28.0512 43.0699 28.5237 43.0699C28.9961 43.0699 29.3795 42.6865 29.3795 42.2141C29.3795 35.4323 31.1083 31.213 34.9254 29.0974C36.9366 27.983 39.5162 27.4422 42.7495 27.4422C42.8505 27.4422 43.6499 27.3857 43.6499 27.3857C44.1223 27.3857 44.5057 27.0022 44.5057 26.5298C44.5057 26.0574 44.1223 25.674 43.6499 25.674H29.0988C26.2625 25.674 23.9637 23.3752 23.9637 20.5389C23.9637 17.7026 26.2625 15.4038 29.0988 15.4038H47.9274C49.5929 15.4038 51.8438 15.4997 53.4356 17.059C53.9919 17.6033 54.4695 18.3188 54.8101 19.2791L57.6498 28.6455C57.9169 29.5219 58.8994 33.5358 58.7214 34.3728C58.7214 46.9366 43.8296 60.0003 26.1923 60.0003C9.11648 60.002 0 46.1082 0 29.1179V28.7259C0.0171169 28.743 0.0359456 28.7533 0.0530625 28.7704C1.56106 30.2801 3.1324 30.8108 4.92283 30.8108H5.34733Z" fill="#FFDC5D"/>
<path d="M4.90229 8.55847H5.36616C8.07577 8.55847 10.2702 10.7546 10.2702 13.4608V24.1965C10.2702 26.9044 8.07577 29.0988 5.36787 29.0988H4.90229C2.19439 29.0988 0 26.9044 0 24.1965V13.4608C0 10.7546 2.19439 8.55847 4.90229 8.55847ZM22.252 23.9637C22.252 25.4888 21.5742 26.8445 20.5164 27.7859C19.6092 28.5938 18.4264 29.0988 17.1169 29.0988C14.2807 29.0988 11.9819 26.8 11.9819 23.9637V8.55847C11.9819 7.16173 12.5433 5.8985 13.4488 4.97247C14.3799 4.01906 15.6774 3.42339 17.1169 3.42339C19.9532 3.42339 22.252 5.72219 22.252 8.55847V23.9637ZM29.0988 13.6936C27.043 13.6936 25.2184 14.6196 23.9637 16.0557V5.13508C23.9637 3.83762 24.4601 2.66682 25.2526 1.76304C26.194 0.689813 27.5583 0 29.0988 0C31.9351 0 34.2339 2.2988 34.2339 5.13508V13.6936H29.0988ZM35.9456 6.83479C35.9456 5.4449 36.5036 4.19023 37.4005 3.26591C38.3317 2.30908 39.6274 1.70998 41.0687 1.70998H41.0926C43.9221 1.71169 46.2157 4.00536 46.2157 6.83479V13.6936H35.9456V6.83479Z" fill="#FFDC5D"/>
</svg>
