<svg width="43" height="64" viewBox="0 0 43 64" fill="none" xmlns="http://www.w3.org/2000/svg">
<path d="M27.0258 31.8952C26.4924 34.242 27.9859 36.6955 30.4394 37.2288C32.8928 37.7622 35.3463 36.2688 35.8797 33.922L42.3868 5.97352C42.9202 3.6267 41.4267 1.17321 38.9732 0.639847C36.5197 0.106479 34.0663 1.59991 33.5329 3.94672L27.0258 31.8952Z" fill="#FFDD67"/>
<path d="M28.7321 35.8424C31.2922 36.3758 33.639 34.8824 34.2791 32.5356L40.7862 4.58712C41.1062 3.30704 40.7862 2.02696 40.0395 1.06689C42.2796 2.02696 43.0263 3.94708 42.5996 6.08055L36.0925 34.029C35.5592 36.3758 33.1057 37.9759 30.6522 37.3359C29.4788 37.1225 28.6254 36.4825 27.9854 35.6291C28.092 35.6291 28.412 35.7358 28.7321 35.8424Z" fill="#EBA352"/>
<path d="M35.4542 34.6687C35.4542 34.6687 26.1736 25.4948 9.7459 30.0817C9.7459 30.0817 0.038615 31.7885 0.571982 36.6955C0.571982 36.6955 0.251962 48.8562 4.41223 56.11C10.706 66.8841 34.9208 68.5908 41.0012 48.6429C42.2813 44.696 41.3212 34.0286 35.4542 34.6687Z" fill="#FFDD67"/>
<path d="M18.9197 33.4952C19.3463 35.9487 21.7998 37.4421 24.2533 37.0154C26.7068 36.5888 28.4136 34.2419 27.9869 31.7884L22.6532 3.62665C22.2265 1.17316 19.773 -0.320268 17.3196 0.106426C14.8661 0.53312 13.1593 2.87994 13.6927 5.33343L18.9197 33.4952Z" fill="#FFDD67"/>
<path d="M22.0111 36.3757C24.5713 35.949 26.1714 33.6021 25.7447 31.1487L20.411 2.98686C20.091 1.70678 19.2376 0.640041 18.1709 0C20.5177 0 22.2245 1.49343 22.6512 3.6269L27.9849 31.7887C28.4116 34.2422 26.8114 36.589 24.358 37.0157C23.1846 37.229 22.1178 37.0157 21.1578 36.4823C21.3711 36.4823 21.6911 36.4823 22.0111 36.3757Z" fill="#EBA352"/>
<path d="M0.0366098 32.1093C-0.283411 29.6558 1.53004 27.4156 4.0902 27.0956H4.19687C6.65036 26.8823 8.99718 28.589 9.21053 31.1492L9.95724 38.083C10.2773 40.5365 8.46381 42.7766 5.90365 43.0966H5.79698C3.23681 43.31 0.996671 41.6032 0.783324 39.043L0.0366098 32.1093Z" fill="#FFDD67"/>
<path d="M8.67723 27.0953C8.35721 24.6418 10.1707 22.4017 12.7308 22.0817H12.8375C15.3977 21.8683 17.6378 23.5751 17.8512 26.1353L18.5979 33.0691C18.9179 35.5225 17.1044 37.7627 14.5443 38.0827H14.4376C11.8774 38.2961 9.63729 36.5893 9.42395 34.0291L8.67723 27.0953Z" fill="#FFDD67"/>
<path d="M4.41098 41.6022C6.97114 41.2821 8.67792 39.1487 8.46457 36.5885L7.71785 29.6547C7.61118 29.0147 7.29116 28.268 6.97114 27.6279C8.57124 28.3746 9.10461 29.6547 9.31796 31.1482L10.0647 38.0819C10.3847 40.5354 8.57124 42.7756 6.11775 42.9889C4.3043 43.2023 2.59753 42.2422 1.74414 40.8554C2.38418 41.3888 3.34424 41.7088 4.41098 41.6022ZM12.9449 36.5885C15.505 36.2685 17.3185 34.135 16.9984 31.6815L16.2517 24.7477C16.1451 24.1077 15.825 23.2543 15.505 22.7209C16.9984 23.5743 17.6385 24.8544 17.8518 26.3478L18.5985 33.2816C18.9186 35.7351 17.1051 37.8686 14.545 38.1886H14.4383C12.6248 38.4019 10.9181 37.4419 10.0647 36.0551C10.9181 36.4818 11.8781 36.6952 12.9449 36.5885ZM31.3994 41.3888C26.279 38.9353 14.6516 43.2023 16.9984 53.8696C16.9984 42.7756 27.0258 40.8554 31.3994 41.3888Z" fill="#EBA352"/>
<path d="M29.4788 30.4018C25.7452 28.1617 25.1052 31.6819 18.8115 31.8952C16.038 32.0019 14.8645 37.6556 19.0248 39.6824C24.7852 42.5626 25.2119 38.509 26.7053 40.1091C28.1987 41.8159 29.5855 42.1359 30.8656 44.056C31.8256 45.4428 38.9728 43.3093 39.7195 40.4291C41.1062 34.7754 35.2392 33.922 29.4788 30.4018Z" fill="#EBA352"/>
<path d="M29.9047 31.3618C26.0644 29.1216 25.3177 32.6418 18.8106 32.8552C15.9304 32.9619 14.6504 38.8289 19.024 40.9624C24.9977 43.9492 25.5311 39.6823 26.9178 41.3891C28.5179 43.0958 29.9047 43.5225 31.2914 45.5493C32.2515 47.0428 29.6913 52.5898 29.6913 52.5898C29.6913 52.5898 37.0518 57.8168 38.5452 54.8299C41.3187 49.2829 40.572 45.016 40.4653 41.8158C40.252 34.2419 35.9851 34.9887 29.9047 31.3618Z" fill="#FFDD67"/>
<path d="M37.2649 35.0955C41.3185 37.0156 41.1051 47.5763 38.1183 52.6966C30.5444 65.3907 13.9034 65.1774 6.11621 58.3503C13.37 66.1374 31.0778 66.8842 39.2917 53.7633C42.5985 48.5363 43.6653 36.3755 37.2649 35.0955Z" fill="#EBA352"/>
<path d="M30.4362 45.6566C30.7562 46.0832 30.6496 46.9366 30.5429 47.8967C30.9696 46.4033 31.2896 44.9098 30.8629 44.2698C29.5828 42.243 28.8361 41.8163 27.236 40.1095C25.7426 38.5094 25.3159 42.6697 19.3422 39.6828C17.102 38.6161 16.3553 36.4826 16.5687 34.6692C15.7153 36.5893 16.142 39.5762 19.0222 41.0696C24.9959 44.0565 25.5292 39.7895 26.916 41.4963C28.4094 43.2031 29.1561 43.6298 30.4362 45.6566Z" fill="#EBA352"/>
</svg>
